<svg xmlns="http://www.w3.org/2000/svg" viewBox="0 0 412 64" width="412" height="64">
  <!-- Patchwork Assurance logo lockup — mark (stitched pinwheel, pieced corners) + serif wordmark.
       Palette C. Wordmark font may be finalized in M1.3 (type); Georgia stack for now. -->
  <g>
    <path d="M0 0 L32 32 L0 32 Z" fill="#f3ece1"/><path d="M32 0 L64 0 L32 32 Z" fill="#f3ece1"/>
    <path d="M64 32 L64 64 L32 32 Z" fill="#f3ece1"/><path d="M0 64 L32 64 L32 32 Z" fill="#f3ece1"/>
    <path d="M0 0 L32 0 L32 32 Z" fill="#2f4b5e"/><path d="M64 0 L64 32 L32 32 Z" fill="#7c2f3b"/>
    <path d="M64 64 L32 64 L32 32 Z" fill="#2f6f5f"/><path d="M0 64 L0 32 L32 32 Z" fill="#d6a43e"/>
    <path d="M0 32 L0 14 L14 32 Z" fill="#7c2f3b"/><path d="M32 0 L50 0 L32 14 Z" fill="#d6a43e"/>
    <path d="M64 32 L64 50 L50 32 Z" fill="#21304c"/><path d="M32 64 L14 64 L32 50 Z" fill="#2f4b5e"/>
    <g stroke="#f3ece1" stroke-width="1.1" stroke-dasharray="2.4 2" fill="none" stroke-linecap="round">
      <path d="M2 2 L30 30"/><path d="M62 2 L34 30"/><path d="M62 62 L34 34"/><path d="M2 62 L30 34"/>
      <path d="M32 2 V62"/><path d="M2 32 H62"/>
    </g>
    <rect x="26" y="26" width="12" height="12" rx="2" fill="#21304c"/>
    <rect x="2.5" y="2.5" width="59" height="59" rx="5" fill="none" stroke="#f3ece1" stroke-width="1.1" stroke-dasharray="3 2.2"/>
  </g>
  <!-- Wordmark: Bricolage Grotesque. NOTE: a web font does NOT load inside an SVG shown as an image
       (e.g. Streamlit st.logo) — it will fall back until M4 outlines the wordmark or renders it as
       live HTML text beside the mark. On the landing page (HTML) the font loads normally. -->
  <g fill="#15191e" transform="translate(80.0,41.0) scale(0.026000,-0.026000)"><path transform="translate(0,0)" d="M174 186V299H325Q397 299 433.0 328.5Q469 358 469 426Q469 486 435.5 517.5Q402 549 332 549H174V660H336Q400 660 451.5 645.0Q503 630 539.5 600.5Q576 571 595.0 526.5Q614 482 614 422Q614 345 579.0 292.5Q544 240 475.5 213.0Q407 186 305 186ZM73 0V660H217V0Z"/><path transform="translate(646,0)" d="M189 -14Q145 -14 111.0 3.5Q77 21 58.0 54.0Q39 87 39 136Q39 179 55.5 208.0Q72 237 104.0 255.0Q136 273 183.0 285.0Q230 297 290 306Q322 311 342.5 315.5Q363 320 373.0 330.5Q383 341 383 361Q383 389 363.0 409.0Q343 429 300 429Q271 429 246.5 419.0Q222 409 204.5 389.0Q187 369 179 338L52 377Q64 418 86.5 448.0Q109 478 141.0 498.5Q173 519 214.0 529.0Q255 539 303 539Q380 539 428.5 514.5Q477 490 501.0 438.5Q525 387 525 306V216Q525 181 526.5 145.0Q528 109 530.5 72.5Q533 36 536 0H409Q405 25 401.5 57.5Q398 90 396 123H378Q364 85 338.0 54.0Q312 23 274.5 4.5Q237 -14 189 -14ZM250 90Q269 90 288.5 97.0Q308 104 326.5 116.5Q345 129 360.5 148.0Q376 167 386 191L384 275L407 270Q389 257 365.0 249.5Q341 242 315.5 238.0Q290 234 265.0 229.0Q240 224 220.5 216.0Q201 208 189.5 194.5Q178 181 178 157Q178 126 198.0 108.0Q218 90 250 90Z"/><path transform="translate(1231,0)" d="M261 -12Q173 -12 131.5 34.5Q90 81 90 183V412H14L16 525H69Q100 525 115.0 534.0Q130 543 133 567L146 642H228V525H361V408H228V189Q228 153 245.0 137.0Q262 121 297 121Q316 121 333.5 125.0Q351 129 364 138V4Q333 -6 307.0 -9.0Q281 -12 261 -12Z"/><path transform="translate(1628,0)" d="M309 -14Q241 -14 190.0 6.0Q139 26 105.0 62.0Q71 98 54.0 147.5Q37 197 37 256Q37 318 54.5 369.5Q72 421 106.0 459.0Q140 497 190.0 518.0Q240 539 304 539Q368 539 415.5 518.0Q463 497 492.5 459.5Q522 422 533 371L400 328Q397 359 383.5 381.5Q370 404 347.5 415.5Q325 427 297 427Q268 427 247.0 415.5Q226 404 211.5 382.5Q197 361 189.5 330.5Q182 300 182 262Q182 208 196.5 170.5Q211 133 239.5 113.5Q268 94 310 94Q350 94 374.0 109.5Q398 125 409.5 149.5Q421 174 424 200L550 172Q545 133 528.5 99.0Q512 65 482.0 40.0Q452 15 409.5 0.5Q367 -14 309 -14Z"/><path transform="translate(2194,0)" d="M66 0V330V715H211V551Q211 531 209.5 509.0Q208 487 204.5 464.5Q201 442 197.5 419.0Q194 396 190 373H212Q226 424 247.5 461.0Q269 498 303.0 518.5Q337 539 389 539Q481 539 527.0 474.5Q573 410 573 277V0H428V255Q428 339 403.5 379.5Q379 420 330 420Q290 420 264.0 396.0Q238 372 225.0 331.5Q212 291 210 241V0Z"/><path transform="translate(2825,0)" d="M145 0 15 525H165L239 114H258L346 525H519L610 114H629L701 525H848L717 0H519L437 408H420L342 0Z"/><path transform="translate(3688,0)" d="M304 -14Q225 -14 165.0 17.5Q105 49 71.0 110.5Q37 172 37 264Q37 356 71.5 417.0Q106 478 166.5 508.5Q227 539 304 539Q383 539 443.5 508.0Q504 477 538.5 415.5Q573 354 573 262Q573 169 537.5 107.5Q502 46 441.5 16.0Q381 -14 304 -14ZM309 93Q348 93 374.5 111.0Q401 129 414.5 165.5Q428 202 428 254Q428 309 413.5 347.5Q399 386 371.0 406.5Q343 427 300 427Q263 427 236.0 409.5Q209 392 195.0 355.5Q181 319 181 266Q181 181 215.0 137.0Q249 93 309 93Z"/><path transform="translate(4297,0)" d="M66 0V254V525H185L186 346H205Q213 413 232.5 455.0Q252 497 287.0 517.0Q322 537 374 537Q383 537 393.5 536.5Q404 536 418 533L412 380Q397 387 379.0 390.0Q361 393 347 393Q308 393 280.0 375.0Q252 357 234.5 323.5Q217 290 211 242V0Z"/><path transform="translate(4731,0)" d="M66 0V715H208V318Q239 339 267.5 363.5Q296 388 319.5 415.0Q343 442 361.5 470.0Q380 498 393 525H558Q543 487 518.5 448.5Q494 410 460.5 377.5Q427 345 383.0 322.0Q339 299 286 291V274Q353 286 397.0 272.0Q441 258 469.5 227.5Q498 197 515.0 157.5Q532 118 546 78L569 0H412L399 49Q385 98 368.0 135.0Q351 172 323.5 192.5Q296 213 248 213H208V0Z"/><path transform="translate(5552,0)" d="M18 0 244 660H454L680 0H524L357 546H342L174 0ZM145 130V228H574V130Z"/><path transform="translate(6250,0)" d="M276 -14Q223 -14 180.0 -4.0Q137 6 106.0 25.0Q75 44 56.0 70.5Q37 97 31 130L141 175Q145 153 163.0 134.0Q181 115 211.5 103.5Q242 92 285 92Q331 92 356.0 105.5Q381 119 381 144Q381 163 367.0 174.0Q353 185 326.0 193.0Q299 201 261 208Q224 217 185.5 227.0Q147 237 114.5 255.0Q82 273 61.5 302.5Q41 332 41 378Q41 426 67.0 462.0Q93 498 143.0 518.5Q193 539 265 539Q330 539 379.0 521.5Q428 504 459.5 471.5Q491 439 502 394L385 355Q381 379 365.5 397.0Q350 415 324.5 424.0Q299 433 265 433Q222 433 198.5 419.0Q175 405 175 382Q175 363 190.5 351.0Q206 339 234.0 331.5Q262 324 300 316Q340 308 378.0 297.5Q416 287 446.5 270.0Q477 253 495.0 225.0Q513 197 513 153Q513 101 485.0 63.5Q457 26 404.0 6.0Q351 -14 276 -14Z"/><path transform="translate(6794,0)" d="M276 -14Q223 -14 180.0 -4.0Q137 6 106.0 25.0Q75 44 56.0 70.5Q37 97 31 130L141 175Q145 153 163.0 134.0Q181 115 211.5 103.5Q242 92 285 92Q331 92 356.0 105.5Q381 119 381 144Q381 163 367.0 174.0Q353 185 326.0 193.0Q299 201 261 208Q224 217 185.5 227.0Q147 237 114.5 255.0Q82 273 61.5 302.5Q41 332 41 378Q41 426 67.0 462.0Q93 498 143.0 518.5Q193 539 265 539Q330 539 379.0 521.5Q428 504 459.5 471.5Q491 439 502 394L385 355Q381 379 365.5 397.0Q350 415 324.5 424.0Q299 433 265 433Q222 433 198.5 419.0Q175 405 175 382Q175 363 190.5 351.0Q206 339 234.0 331.5Q262 324 300 316Q340 308 378.0 297.5Q416 287 446.5 270.0Q477 253 495.0 225.0Q513 197 513 153Q513 101 485.0 63.5Q457 26 404.0 6.0Q351 -14 276 -14Z"/><path transform="translate(7338,0)" d="M244 -14Q152 -14 105.5 48.5Q59 111 59 239V525H203V257Q203 180 226.0 142.5Q249 105 296 105Q324 105 345.0 119.0Q366 133 381.0 158.0Q396 183 403.5 217.0Q411 251 412 290V525H556V214V0H440L439 164H421Q406 102 383.5 62.5Q361 23 326.5 4.5Q292 -14 244 -14Z"/><path transform="translate(7960,0)" d="M66 0V254V525H185L186 346H205Q213 413 232.5 455.0Q252 497 287.0 517.0Q322 537 374 537Q383 537 393.5 536.5Q404 536 418 533L412 380Q397 387 379.0 390.0Q361 393 347 393Q308 393 280.0 375.0Q252 357 234.5 323.5Q217 290 211 242V0Z"/><path transform="translate(8394,0)" d="M189 -14Q145 -14 111.0 3.5Q77 21 58.0 54.0Q39 87 39 136Q39 179 55.5 208.0Q72 237 104.0 255.0Q136 273 183.0 285.0Q230 297 290 306Q322 311 342.5 315.5Q363 320 373.0 330.5Q383 341 383 361Q383 389 363.0 409.0Q343 429 300 429Q271 429 246.5 419.0Q222 409 204.5 389.0Q187 369 179 338L52 377Q64 418 86.5 448.0Q109 478 141.0 498.5Q173 519 214.0 529.0Q255 539 303 539Q380 539 428.5 514.5Q477 490 501.0 438.5Q525 387 525 306V216Q525 181 526.5 145.0Q528 109 530.5 72.5Q533 36 536 0H409Q405 25 401.5 57.5Q398 90 396 123H378Q364 85 338.0 54.0Q312 23 274.5 4.5Q237 -14 189 -14ZM250 90Q269 90 288.5 97.0Q308 104 326.5 116.5Q345 129 360.5 148.0Q376 167 386 191L384 275L407 270Q389 257 365.0 249.5Q341 242 315.5 238.0Q290 234 265.0 229.0Q240 224 220.5 216.0Q201 208 189.5 194.5Q178 181 178 157Q178 126 198.0 108.0Q218 90 250 90Z"/><path transform="translate(8979,0)" d="M66 0V318V525H184L183 368H203Q216 425 240.0 463.0Q264 501 300.5 520.0Q337 539 387 539Q478 539 525.5 475.0Q573 411 573 274V0H428V258Q428 342 403.5 380.5Q379 419 332 419Q292 419 265.0 394.0Q238 369 224.5 328.5Q211 288 210 238V0Z"/><path transform="translate(9610,0)" d="M309 -14Q241 -14 190.0 6.0Q139 26 105.0 62.0Q71 98 54.0 147.5Q37 197 37 256Q37 318 54.5 369.5Q72 421 106.0 459.0Q140 497 190.0 518.0Q240 539 304 539Q368 539 415.5 518.0Q463 497 492.5 459.5Q522 422 533 371L400 328Q397 359 383.5 381.5Q370 404 347.5 415.5Q325 427 297 427Q268 427 247.0 415.5Q226 404 211.5 382.5Q197 361 189.5 330.5Q182 300 182 262Q182 208 196.5 170.5Q211 133 239.5 113.5Q268 94 310 94Q350 94 374.0 109.5Q398 125 409.5 149.5Q421 174 424 200L550 172Q545 133 528.5 99.0Q512 65 482.0 40.0Q452 15 409.5 0.5Q367 -14 309 -14Z"/><path transform="translate(10176,0)" d="M310 -14Q245 -14 194.5 4.0Q144 22 109.0 56.0Q74 90 55.5 140.0Q37 190 37 253Q37 315 54.5 367.5Q72 420 106.0 458.5Q140 497 189.0 518.0Q238 539 300 539Q360 539 407.0 519.5Q454 500 485.5 461.0Q517 422 531.5 365.5Q546 309 542 236L130 232V311L459 314L408 274Q415 327 401.0 361.0Q387 395 360.5 411.0Q334 427 302 427Q264 427 235.0 407.0Q206 387 190.0 348.5Q174 310 174 256Q174 171 211.5 131.0Q249 91 310 91Q338 91 357.5 98.5Q377 106 389.5 118.0Q402 130 409.5 145.0Q417 160 422 175L547 148Q538 111 520.5 81.5Q503 52 474.0 30.5Q445 9 404.5 -2.5Q364 -14 310 -14Z"/></g>
</svg>
